<mxfile host="app.diagrams.net" modified="2023-04-20T05:36:30.214Z" agent="Mozilla/5.0 (Macintosh; Intel Mac OS X 10_15_7) AppleWebKit/537.36 (KHTML, like Gecko) Chrome/112.0.0.0 Safari/537.36" etag="NINAaW5x14l4MlHMFtxU" version="21.1.9" type="github">
  <diagram name="Page-1" id="LVZoNYxHvud7TBq3Esnv">
    <mxGraphModel dx="2120" dy="1369" grid="1" gridSize="10" guides="1" tooltips="1" connect="1" arrows="1" fold="1" page="1" pageScale="1" pageWidth="850" pageHeight="1100" math="0" shadow="0">
      <root>
        <mxCell id="0" />
        <mxCell id="1" parent="0" />
        <mxCell id="8IdoDz5DLcCx1GYUlsVv-1" value="BOOK&lt;br&gt;&lt;br&gt;&lt;u&gt;ISBN&lt;br&gt;&lt;/u&gt;Title&lt;br&gt;Price&lt;br&gt;Date of publication" style="whiteSpace=wrap;html=1;align=center;" parent="1" vertex="1">
          <mxGeometry x="130" y="120" width="120" height="100" as="geometry" />
        </mxCell>
        <mxCell id="8IdoDz5DLcCx1GYUlsVv-2" value="PUBLISHER&lt;br&gt;&lt;br&gt;&lt;u&gt;ID&lt;br&gt;&lt;/u&gt;Name&lt;br style=&quot;border-color: var(--border-color);&quot;&gt;Phone No." style="whiteSpace=wrap;html=1;align=center;" parent="1" vertex="1">
          <mxGeometry x="375" y="125" width="100" height="90" as="geometry" />
        </mxCell>
        <mxCell id="8IdoDz5DLcCx1GYUlsVv-3" style="edgeStyle=orthogonalEdgeStyle;rounded=0;orthogonalLoop=1;jettySize=auto;html=1;entryX=1;entryY=0.5;entryDx=0;entryDy=0;endArrow=ERoneToMany;endFill=0;startArrow=ERmandOne;startFill=0;" parent="1" source="8IdoDz5DLcCx1GYUlsVv-2" target="8IdoDz5DLcCx1GYUlsVv-1" edge="1">
          <mxGeometry relative="1" as="geometry">
            <mxPoint x="239.9999999999999" y="169.969696969697" as="sourcePoint" />
          </mxGeometry>
        </mxCell>
        <mxCell id="8IdoDz5DLcCx1GYUlsVv-10" style="edgeStyle=orthogonalEdgeStyle;rounded=0;orthogonalLoop=1;jettySize=auto;html=1;entryX=0;entryY=0.5;entryDx=0;entryDy=0;endArrow=ERoneToMany;endFill=0;" parent="1" source="8IdoDz5DLcCx1GYUlsVv-6" target="8IdoDz5DLcCx1GYUlsVv-9" edge="1">
          <mxGeometry relative="1" as="geometry" />
        </mxCell>
        <mxCell id="8IdoDz5DLcCx1GYUlsVv-6" value="PIANO&lt;br&gt;&lt;br&gt;&lt;u&gt;Serial No.&lt;br&gt;&lt;/u&gt;Manufacture Date" style="whiteSpace=wrap;html=1;align=center;" parent="1" vertex="1">
          <mxGeometry x="70" y="310" width="120" height="80" as="geometry" />
        </mxCell>
        <mxCell id="8IdoDz5DLcCx1GYUlsVv-11" style="edgeStyle=orthogonalEdgeStyle;rounded=0;orthogonalLoop=1;jettySize=auto;html=1;entryX=1;entryY=0.5;entryDx=0;entryDy=0;endArrow=ERzeroToMany;endFill=0;" parent="1" source="8IdoDz5DLcCx1GYUlsVv-7" target="8IdoDz5DLcCx1GYUlsVv-9" edge="1">
          <mxGeometry relative="1" as="geometry" />
        </mxCell>
        <mxCell id="8IdoDz5DLcCx1GYUlsVv-7" value="TECHNICIAN&lt;br&gt;&lt;br&gt;&lt;u&gt;Employee No.&lt;br&gt;&lt;/u&gt;" style="whiteSpace=wrap;html=1;align=center;" parent="1" vertex="1">
          <mxGeometry x="390" y="317.5" width="100" height="65" as="geometry" />
        </mxCell>
        <mxCell id="8IdoDz5DLcCx1GYUlsVv-9" value="INSPECTION&lt;br&gt;&lt;br&gt;&lt;u&gt;InspID&lt;/u&gt; (Serial No., Employee No.)&lt;br&gt;Date&lt;br&gt;Quality Grade" style="rounded=1;arcSize=10;whiteSpace=wrap;html=1;align=center;" parent="1" vertex="1">
          <mxGeometry x="220" y="300" width="140" height="100" as="geometry" />
        </mxCell>
        <mxCell id="8IdoDz5DLcCx1GYUlsVv-13" value="BOOK&lt;br&gt;&lt;br&gt;&lt;u&gt;ISBN&lt;br&gt;&lt;/u&gt;Title&lt;br&gt;Price&lt;br&gt;Date of publication" style="whiteSpace=wrap;html=1;align=center;" parent="1" vertex="1">
          <mxGeometry x="310" y="490" width="120" height="100" as="geometry" />
        </mxCell>
        <mxCell id="8IdoDz5DLcCx1GYUlsVv-20" style="edgeStyle=orthogonalEdgeStyle;rounded=0;orthogonalLoop=1;jettySize=auto;html=1;endArrow=ERoneToMany;endFill=0;" parent="1" source="8IdoDz5DLcCx1GYUlsVv-16" target="8IdoDz5DLcCx1GYUlsVv-19" edge="1">
          <mxGeometry relative="1" as="geometry" />
        </mxCell>
        <mxCell id="8IdoDz5DLcCx1GYUlsVv-16" value="&lt;span style=&quot;text-align: start; background-color: initial;&quot;&gt;CHEMIST&lt;br&gt;&lt;/span&gt;&lt;span style=&quot;text-align: start; background-color: initial;&quot; class=&quot;Apple-converted-space&quot;&gt;&lt;br&gt;&lt;u&gt;Employee ID&lt;br&gt;&lt;/u&gt;Name&lt;br&gt;Phone No.&lt;br&gt;&lt;/span&gt;" style="whiteSpace=wrap;html=1;align=center;" parent="1" vertex="1">
          <mxGeometry x="60" y="672.5" width="100" height="80" as="geometry" />
        </mxCell>
        <mxCell id="8IdoDz5DLcCx1GYUlsVv-21" style="edgeStyle=orthogonalEdgeStyle;rounded=0;orthogonalLoop=1;jettySize=auto;html=1;entryX=1;entryY=0.5;entryDx=0;entryDy=0;endArrow=ERzeroToMany;endFill=0;" parent="1" source="8IdoDz5DLcCx1GYUlsVv-17" target="8IdoDz5DLcCx1GYUlsVv-19" edge="1">
          <mxGeometry relative="1" as="geometry" />
        </mxCell>
        <mxCell id="8IdoDz5DLcCx1GYUlsVv-17" value="PROJECT&lt;br&gt;&lt;br&gt;&lt;u&gt;Project ID&lt;/u&gt;&lt;br&gt;Start Date" style="whiteSpace=wrap;html=1;align=center;" parent="1" vertex="1">
          <mxGeometry x="430" y="677.5" width="100" height="70" as="geometry" />
        </mxCell>
        <mxCell id="8IdoDz5DLcCx1GYUlsVv-22" style="edgeStyle=orthogonalEdgeStyle;rounded=0;orthogonalLoop=1;jettySize=auto;html=1;entryX=0.5;entryY=1;entryDx=0;entryDy=0;endArrow=ERzeroToMany;endFill=0;" parent="1" source="8IdoDz5DLcCx1GYUlsVv-18" target="8IdoDz5DLcCx1GYUlsVv-19" edge="1">
          <mxGeometry relative="1" as="geometry" />
        </mxCell>
        <mxCell id="8IdoDz5DLcCx1GYUlsVv-18" value="&lt;span style=&quot;text-align: start; background-color: initial;&quot;&gt;EQUIPMENT&lt;br&gt;&lt;br&gt;&lt;u&gt;Serial No.&lt;br&gt;&lt;/u&gt;Cost&lt;br&gt;&lt;/span&gt;" style="whiteSpace=wrap;html=1;align=center;" parent="1" vertex="1">
          <mxGeometry x="240" y="800" width="100" height="90" as="geometry" />
        </mxCell>
        <mxCell id="8IdoDz5DLcCx1GYUlsVv-19" value="ASSIGNMENT&lt;br&gt;&lt;br&gt;&lt;u&gt;Assign ID &lt;/u&gt;(Employee ID, Project ID, Serial No.)&amp;nbsp;&lt;br&gt;Assign Date" style="rounded=1;arcSize=10;whiteSpace=wrap;html=1;align=center;" parent="1" vertex="1">
          <mxGeometry x="220" y="660" width="140" height="105" as="geometry" />
        </mxCell>
        <mxCell id="BqWAguVEFXyIC8rA3QBg-5" style="edgeStyle=orthogonalEdgeStyle;rounded=0;orthogonalLoop=1;jettySize=auto;html=1;exitX=1;exitY=0.5;exitDx=0;exitDy=0;entryX=0.5;entryY=0;entryDx=0;entryDy=0;endArrow=ERoneToMany;endFill=0;startArrow=ERzeroToMany;startFill=0;" edge="1" parent="1" source="8IdoDz5DLcCx1GYUlsVv-13" target="8IdoDz5DLcCx1GYUlsVv-13">
          <mxGeometry relative="1" as="geometry">
            <Array as="points">
              <mxPoint x="450" y="540" />
              <mxPoint x="450" y="460" />
              <mxPoint x="370" y="460" />
            </Array>
          </mxGeometry>
        </mxCell>
      </root>
    </mxGraphModel>
  </diagram>
</mxfile>
